<svg xmlns="http://www.w3.org/2000/svg" viewBox="0 0 512 512">
  <path fill="#22c55e" d="M174.7 45.1C192.2 17 223 0 256 0s63.8 17 81.3 45.1l38.6 61.7 27-15.6c8.4-4.9 18.9-4.2 26.6 1.7s11.1 15.9 8.9 25.4l-8.3 35.7 35.7 8.3c9.5 2.2 17.3 9.3 19.5 18.7s-1 19.3-8.9 25.4l-27 15.6 38.6 61.7C506.4 301.5 512 329.7 512 352c0 17.7-14.3 32-32 32H32c-17.7 0-32-14.3-32-32c0-22.3 5.6-50.5 24.7-69.4l38.6-61.7-27-15.6c-7.9-4.6-12.9-12.7-13.1-21.7s4.4-17.4 12-22.3L62.5 145l-8.3-35.7c-2.2-9.5 1.1-19.5 8.9-25.4s18.2-6.6 26.6-1.7l27 15.6L155.3 36c17.5-28.1 48.3-45.1 81.3-45.1zm81.3 105.8c-9.8-15.7-31.4-15.7-41.3 0l-71.9 115c-7.9 12.6-1.5 29.1 12.8 33.1c8.9 2.5 17.8 5.4 26.9 8.5c5.8 2 12.3-.4 14.9-5.9l27.4-57.8 27.4 57.8c2.7 5.5 9.2 7.9 14.9 5.9c9.1-3.1 18-6 26.9-8.5c14.3-4 20.7-20.5 12.8-33.1l-71.9-115z"/>
</svg>